<svg xmlns="http://www.w3.org/2000/svg" viewBox="0 0 50 45.3" fill="#fff"><path d="M33.2 39.3c0 3-1.9 5.3-4.8 5.9-.5.1-1.1.1-1.7.1V18.2c0-2.7 2.1-4.8 4.8-4.8h8.6c1.8 0 3.3-1.4 3.4-3.1.1-1.9-1.1-3.4-2.9-3.7H26.7V0h13.4c4.4 0 8.3 2.9 9.5 7.2 1.2 4.2-.4 8.6-4 11-1.7 1.2-3.6 1.7-5.6 1.8h-2.1l11.2 11.2c-1.2 1.4-2.7 2.2-4.5 2.3s-3.3-.6-4.5-1.9l-6.8-6.8h-.1v14.5zM6.6 10c0 1.9 1.5 3.4 3.5 3.4h8.3c2.5 0 4.4 1.6 4.9 4.1 0 .2.1.5.1.7v27.2c-.6 0-1.1 0-1.6-.1-2.9-.5-5-3-4.9-5.8V24.9c-.1 0-.1-.1-.2-.1L15.6 26l-5.8 5.8c-2.5 2.6-6.5 2.4-8.9-.4l11.3-11.3h-.5c-1.4 0-2.9.1-4.3-.4-3.7-1.1-6.1-3.5-7.1-7.1-1-3.8 0-7.1 2.9-9.8C5 .9 7.2.1 9.7 0h13.7v6.5H10.1c-2 .1-3.5 1.6-3.5 3.5z"/></svg>